<?xml version="1.0" encoding="utf-8"?>
<!-- Generator: Adobe Illustrator 16.0.4, SVG Export Plug-In . SVG Version: 6.00 Build 0)  -->
<!DOCTYPE svg PUBLIC "-//W3C//DTD SVG 1.1//EN" "http://www.w3.org/Graphics/SVG/1.1/DTD/svg11.dtd">
<svg version="1.1" xmlns="http://www.w3.org/2000/svg" xmlns:xlink="http://www.w3.org/1999/xlink" x="0px" y="0px" width="14.75px"
	 height="28px" viewBox="0 0 14.75 28" enable-background="new 0 0 14.75 28" xml:space="preserve">
<g id="Toolkit">
	<g>
		<g>
			<defs>
				<path id="SVGID_13_" d="M-619.47-527.923c0.41,0,0.739-0.332,0.739-0.739c0-0.409-0.329-0.741-0.739-0.741
					c-0.408,0-0.74,0.332-0.74,0.741C-620.21-528.255-619.878-527.923-619.47-527.923"/>
			</defs>
			<clipPath id="SVGID_1_">
				<use xlink:href="#SVGID_13_"  overflow="visible"/>
			</clipPath>
			<g clip-path="url(#SVGID_1_)">
				<defs>
					<rect id="SVGID_15_" x="-1046.361" y="-953.263" width="1500" height="1100"/>
				</defs>
				<clipPath id="SVGID_2_">
					<use xlink:href="#SVGID_15_"  overflow="visible"/>
				</clipPath>
			</g>
		</g>
		<g>
			<defs>
				<path id="SVGID_17_" d="M-623.58-527.923c0.41,0,0.74-0.332,0.74-0.739c0-0.409-0.33-0.741-0.74-0.741s-0.738,0.332-0.738,0.741
					C-624.318-528.255-623.99-527.923-623.58-527.923"/>
			</defs>
			<clipPath id="SVGID_3_">
				<use xlink:href="#SVGID_17_"  overflow="visible"/>
			</clipPath>
			<g clip-path="url(#SVGID_3_)">
				<defs>
					<rect id="SVGID_19_" x="-1046.361" y="-953.263" width="1500" height="1100"/>
				</defs>
				<clipPath id="SVGID_4_">
					<use xlink:href="#SVGID_19_"  overflow="visible"/>
				</clipPath>
			</g>
		</g>
		<g>
			<defs>
				<path id="SVGID_21_" d="M-615.361-527.923c0.41,0,0.74-0.332,0.74-0.739c0-0.409-0.33-0.741-0.74-0.741
					c-0.408,0-0.739,0.332-0.739,0.741C-616.1-528.255-615.769-527.923-615.361-527.923"/>
			</defs>
			<clipPath id="SVGID_5_">
				<use xlink:href="#SVGID_21_"  overflow="visible"/>
			</clipPath>
			<g clip-path="url(#SVGID_5_)">
				<defs>
					<rect id="SVGID_23_" x="-1046.361" y="-953.263" width="1500" height="1100"/>
				</defs>
				<clipPath id="SVGID_6_">
					<use xlink:href="#SVGID_23_"  overflow="visible"/>
				</clipPath>
			</g>
		</g>
		<g>
			<defs>
				<path id="SVGID_25_" d="M-623.58-524.716c0.41,0,0.74-0.332,0.74-0.742c0-0.406-0.33-0.74-0.74-0.74s-0.738,0.334-0.738,0.74
					C-624.318-525.048-623.99-524.716-623.58-524.716"/>
			</defs>
			<clipPath id="SVGID_7_">
				<use xlink:href="#SVGID_25_"  overflow="visible"/>
			</clipPath>
			<g clip-path="url(#SVGID_7_)">
				<defs>
					<rect id="SVGID_27_" x="-1046.361" y="-953.263" width="1500" height="1100"/>
				</defs>
				<clipPath id="SVGID_8_">
					<use xlink:href="#SVGID_27_"  overflow="visible"/>
				</clipPath>
			</g>
		</g>
		<g>
			<defs>
				<path id="SVGID_29_" d="M-619.47-524.716c0.41,0,0.739-0.332,0.739-0.742c0-0.406-0.329-0.74-0.739-0.74
					c-0.408,0-0.74,0.334-0.74,0.74C-620.21-525.048-619.878-524.716-619.47-524.716"/>
			</defs>
			<clipPath id="SVGID_9_">
				<use xlink:href="#SVGID_29_"  overflow="visible"/>
			</clipPath>
			<g clip-path="url(#SVGID_9_)">
				<defs>
					<rect id="SVGID_31_" x="-1046.361" y="-953.263" width="1500" height="1100"/>
				</defs>
				<clipPath id="SVGID_10_">
					<use xlink:href="#SVGID_31_"  overflow="visible"/>
				</clipPath>
			</g>
		</g>
		<g>
			<defs>
				<path id="SVGID_33_" d="M-615.361-524.716c0.41,0,0.74-0.332,0.74-0.742c0-0.406-0.33-0.74-0.74-0.74
					c-0.408,0-0.739,0.334-0.739,0.74C-616.1-525.048-615.769-524.716-615.361-524.716"/>
			</defs>
			<clipPath id="SVGID_11_">
				<use xlink:href="#SVGID_33_"  overflow="visible"/>
			</clipPath>
			<g clip-path="url(#SVGID_11_)">
				<defs>
					<rect id="SVGID_35_" x="-1046.361" y="-953.263" width="1500" height="1100"/>
				</defs>
				<clipPath id="SVGID_12_">
					<use xlink:href="#SVGID_35_"  overflow="visible"/>
				</clipPath>
			</g>
		</g>
		<g>
			<defs>
				<path id="SVGID_37_" d="M-623.58-521.512c0.41,0,0.74-0.331,0.74-0.739c0-0.41-0.33-0.74-0.74-0.74s-0.738,0.33-0.738,0.74
					C-624.318-521.843-623.99-521.512-623.58-521.512"/>
			</defs>
			<clipPath id="SVGID_14_">
				<use xlink:href="#SVGID_37_"  overflow="visible"/>
			</clipPath>
			<g clip-path="url(#SVGID_14_)">
				<defs>
					<rect id="SVGID_39_" x="-1046.361" y="-953.263" width="1500" height="1100"/>
				</defs>
				<clipPath id="SVGID_16_">
					<use xlink:href="#SVGID_39_"  overflow="visible"/>
				</clipPath>
			</g>
		</g>
		<g>
			<defs>
				<path id="SVGID_41_" d="M-627.689-524.716c0.41,0,0.74-0.332,0.74-0.742c0-0.406-0.33-0.74-0.74-0.74
					c-0.408,0-0.738,0.334-0.738,0.74C-628.427-525.048-628.097-524.716-627.689-524.716"/>
			</defs>
			<clipPath id="SVGID_18_">
				<use xlink:href="#SVGID_41_"  overflow="visible"/>
			</clipPath>
			<g clip-path="url(#SVGID_18_)">
				<defs>
					<rect id="SVGID_43_" x="-1046.361" y="-953.263" width="1500" height="1100"/>
				</defs>
				<clipPath id="SVGID_20_">
					<use xlink:href="#SVGID_43_"  overflow="visible"/>
				</clipPath>
			</g>
		</g>
		<g>
			<defs>
				<path id="SVGID_45_" d="M-627.689-521.512c0.41,0,0.74-0.331,0.74-0.739c0-0.41-0.33-0.74-0.74-0.74
					c-0.408,0-0.738,0.33-0.738,0.74C-628.427-521.843-628.097-521.512-627.689-521.512"/>
			</defs>
			<clipPath id="SVGID_22_">
				<use xlink:href="#SVGID_45_"  overflow="visible"/>
			</clipPath>
			<g clip-path="url(#SVGID_22_)">
				<defs>
					<rect id="SVGID_47_" x="-1046.361" y="-953.263" width="1500" height="1100"/>
				</defs>
				<clipPath id="SVGID_24_">
					<use xlink:href="#SVGID_47_"  overflow="visible"/>
				</clipPath>
			</g>
		</g>
		<g>
			<defs>
				<path id="SVGID_49_" d="M-619.47-521.512c0.41,0,0.739-0.331,0.739-0.739c0-0.41-0.329-0.74-0.739-0.74
					c-0.408,0-0.74,0.33-0.74,0.74C-620.21-521.843-619.878-521.512-619.47-521.512"/>
			</defs>
			<clipPath id="SVGID_26_">
				<use xlink:href="#SVGID_49_"  overflow="visible"/>
			</clipPath>
			<g clip-path="url(#SVGID_26_)">
				<defs>
					<rect id="SVGID_51_" x="-1046.361" y="-953.263" width="1500" height="1100"/>
				</defs>
				<clipPath id="SVGID_28_">
					<use xlink:href="#SVGID_51_"  overflow="visible"/>
				</clipPath>
			</g>
		</g>
	</g>
	<polyline fill="none" stroke="#9DA3A6" stroke-linecap="round" stroke-linejoin="round" stroke-miterlimit="10" points="
		13.77,26.193 1.77,13.686 13.77,1.264 	"/>
</g>
<g id="Illustrations">
</g>
</svg>
